@startuml amts_infomodel_med

' verhindere Probleme mit gewinkelten Krähenfüßen
'skinparam linetype ortho
 
' package Dummy{
' Entität01 }|..|| Entität02
' Entität03 }o..o| Entität04
' Entität05 ||--o{ Entität06
' Entität07 |o--|| Entität08
' }
 
 ' TODO:
 ' Vervollständigen im Sinne von: https://github.com/gematik/spec-ISiK-Medikation/blob/rc/main-stufe-4/Material/docs/Medikation%20Abgleich%20bestehende%20Spezifikationen.xlsx



   'ISiKMedikation::itemReference --> ISiKMedikation

namespace Infomodell_LaborVitalObservations {
   class ISiKKoerpergewicht <Observation><<(P,#8DA5C4)>>{
      Dokumentation auf Simplifier 
      [[https://simplifier.net/isik-vitalparameter-und-koerpermasze-v4/isikkoerpergewicht ISiK Körpergewicht]]
   }
   class ISiKKoerpergroesse <Observation><<(P,#8DA5C4)>>{
      Dokumentation auf Simplifier 
      [[https://gematik.de/fhir/isik/StructureDefinition/ISiKKoerpergroesse ISiK Koerpergroesse]]
   }

   class  ISiKLaboruntersuchung <Observation><<(P,#8DA5C4)>>{
      Dokumentation auf Simplifier 
      [[https://simplifier.net/isik-labor-v4/isiklaboruntersuchung ISiK Laboruntersuchung]]
      ---
      code : **LOINCCodes**
      . . .
      value[x]
         |_ value
         |_ system : http://unitsofmeasure.org
      . . .
   }
}

namespace Infomodell_Basis {
   class ISiKPatient <Patient><<(P,#8DA5C4)>>{
      Dokumentation auf Simplifier 
      [[https://simplifier.net/isik-basis-v4/isikpatient ISiK Patient]]
   }
   class ISiKKontaktGesundheitseinrichtung <Encounter><<(P,#8DA5C4)>>{
      Dokumentation auf Simplifier 
      [[https://simplifier.net/isik-basis-v4/isikkontaktgesundheitseinrichtung ISiK Kontakt Gesundheitseinrichtung]]
   }  
   class ISiKProzedur <Procedure><<(P,#8DA5C4)>>{
      Dokumentation auf Simplifier 
      [[https://simplifier.net/isik-basis-v4/isikprozedur ISiK Prozedur]]
   }

   
   class ISiKAllergieUnvertraeglichkeit <AllergyIntolerance><<(P,#8DA5C4)>>{
      Dokumentation auf Simplifier 
      [[https://simplifier.net/isik-basis-v4/isikallergieunvertraeglichkeit ISiK AllergieUnvertraeglichkeit]]
      ---
      type : **AllergyIntoleranceType**
      category : **AllergyIntoleranceCategory**
      criticality : **AllergyIntoleranceCriticality**
      code
      |_ coding
      . . .
   }

   class ISiKLebensZustand <Observation><<(P,#8DA5C4)>>{
      Dokumentation auf Simplifier 
      [[https://simplifier.net/isik-basis-v4/isiklebenszustand ISiK LebensZustand]]
      ---
      status : **ObservationStatus**
      code
      subject : Reference ( **Patient** | \nGroup | Device | Location)
      . . .
   }  

   class ISiKDiagnose <Condition><<(P,#8DA5C4)>>{
      Dokumentation auf Simplifier 
      [[https://simplifier.net/isik-basis-v4/isikdiagnose ISiK Diagnose]]
   }
   
}
'Valuesets Observations

'Medikation related
together {
   class ISiKAMTSBewertung <RiskAssessment><<(P,#8DA5C4)>>{
      Dokumentation [[https://simplifier.net/guide/isik-medikation-v4/ImplementationGuide-markdown-Datenobjekte-Profile_AMTSBewertung hier]] oder auf
      Simplifier [[https://simplifier.net/isik-medikation-v4/isikamtsbewertung ISiK AMTS Bewertung]]
      ---
      subject : Reference( **Patient** )
      encounter : Reference( **Encounter** )
      condition : Reference( **Condition** )
      reasonReference : Reference( **Condition** | **Observation** | \nDiagnosticReport | **DocumentReference** )
      basis : Reference( **Resource** )
      prediction
   }
   
   class ISiKMedikament <Medication><<(P,#8DA5C4)>>{
      Dokumentation [[https://simplifier.net/guide/isik-medikation-v4/ImplementationGuide-markdown-Datenobjekte-Profile_Medikament hier]] oder auf 
      Simplifier [[https://simplifier.net/isik-medikation-v4/isikmedikament ISiK Medikament]]
      ---
   }
   'ISiKMedikation::itemReference --> ISiKMedikation

   class ISiKMedikationsInformation <MedicationStatement><<(P,#8DA5C4)>>{
      Dokumentation [[https://simplifier.net/guide/isik-medikation-v4/ImplementationGuide-markdown-Datenobjekte-Profile_MedikationsInformation hier]] oder auf 
      Simplifier [[https://simplifier.net/isik-medikation-v4/isikmedikationsinformation ISiK Medikationsinformation]]
      ---
      id
      ...
      ...
      AcceptedRisk : **Extension**
      |_ text
      |_ Bewertung : **ISiKAMTSBewertung**
   }

   class ISiKMedikationsVerabreichung <MedicationAdministration><<(P,#8DA5C4)>>{
      Dokumentation [[https://simplifier.net/guide/isik-medikation-v4/ImplementationGuide-markdown-Datenobjekte-Profile_MedikationsVerabreichung hier]] oder auf 
      Simplifier [[https://simplifier.net/isik-medikation-v4/isikmedikationsverabreichung ISiK Medikationsverabreichung]]
      ---
      id
      ...
      ...
      AcceptedRisk : **Extension**
      |_ text
      |_ Bewertung : **ISiKAMTSBewertung**
   }

   class ISiKMedikationsVerordnung <MedicationRequest><<(P,#8DA5C4)>>{
      Dokumentation [[https://simplifier.net/guide/isik-medikation-v4/ImplementationGuide-markdown-Datenobjekte-Profile_MedikationsVerordnung hier]] oder auf
      Simplifier [[https://simplifier.net/isik-medikation-v4/isikmedikationsverordnung ISiK Medikationsverordnung]]
      ---
      id
      ...
      ...
      AcceptedRisk : **Extension**
      |_ text
      |_ Bewertung : **ISiKAMTSBewertung**
   }

}

'Relations regarding the observation

'diamonds
'together {
<> MultiRef_PatEnc
MultiRef_PatEnc -- "  1..1  " Infomodell_Basis.ISiKPatient
MultiRef_PatEnc -- "  0..1  " Infomodell_Basis.ISiKKontaktGesundheitseinrichtung
<> MultiRef_AccRisk
MultiRef_AccRisk <-down- "  0..1  " ISiKMedikationsVerordnung::AcceptedRisk
MultiRef_AccRisk <-down- "  0..1  " ISiKMedikationsVerabreichung::AcceptedRisk
MultiRef_AccRisk <-down- "  0..1  " ISiKMedikationsInformation::AcceptedRisk
'}


Infomodell_Basis.ISiKAllergieUnvertraeglichkeit .. Infomodell_Basis.ISiKDiagnose

Infomodell_Basis.ISiKAllergieUnvertraeglichkeit .. Infomodell_Basis.ISiKProzedur

'AMTS
ISiKMedikament "  1..1  " <-down-  MultiRef_AccRisk
ISiKAMTSBewertung -- MultiRef_AccRisk
ISiKAMTSBewertung --> MultiRef_PatEnc

ISiKAMTSBewertung -right-> "  0..*  " Infomodell_LaborVitalObservations.ISiKLaboruntersuchung
ISiKAMTSBewertung -down-> "  0..1  " Infomodell_Basis.ISiKAllergieUnvertraeglichkeit
ISiKAMTSBewertung -down-> "  0..*  " Infomodell_Basis.ISiKLebensZustand
ISiKAMTSBewertung::basis -right-> Infomodell_LaborVitalObservations

@enduml